<?xml version="1.0" encoding="UTF-8" standalone="no"?>
<!DOCTYPE svg PUBLIC "-//W3C//DTD SVG 1.1//EN" "http://www.w3.org/Graphics/SVG/1.1/DTD/svg11.dtd">
<svg width="100%" height="100%" viewBox="0 0 1414 300" version="1.1" xmlns="http://www.w3.org/2000/svg" xmlns:xlink="http://www.w3.org/1999/xlink" xml:space="preserve" xmlns:serif="http://www.serif.com/" style="fill-rule:evenodd;clip-rule:evenodd;stroke-linejoin:round;stroke-miterlimit:2;">
    <g transform="matrix(1,0,0,1,-632.79,-2400)">
        <g>
            <g transform="matrix(2.21426,0,0,2.21426,819.766,1560.28)">
                <path d="M90.158,429.297C91.437,429.297 92.514,429.558 93.389,430.079C94.265,430.601 95.123,431.62 95.966,433.136L112.685,463.493C112.853,463.83 112.896,464.107 112.812,464.326C112.728,464.546 112.484,464.654 112.08,464.654L105.665,464.654C105.093,464.654 104.706,464.435 104.503,463.998L100.917,457.482L77.177,457.482L73.691,463.998C73.455,464.436 73.068,464.654 72.53,464.654L65.965,464.654C65.526,464.654 65.266,464.546 65.182,464.326C65.096,464.107 65.139,463.83 65.307,463.493L81.875,433.136C82.717,431.62 83.542,430.602 84.351,430.079C85.159,429.558 86.1,429.297 87.179,429.297L90.158,429.297ZM80.358,451.623L97.734,451.623L89.703,436.823C89.568,436.588 89.382,436.469 89.147,436.469L88.844,436.469C88.608,436.469 88.422,436.588 88.288,436.823L80.358,451.623Z" style="fill:white;fill-rule:nonzero;"/>
                <path d="M165.727,429.297C169.599,429.297 172.377,430.173 174.062,431.924C175.745,433.675 176.587,436.268 176.587,439.702L176.587,442.581C176.587,445.477 175.997,447.768 174.819,449.451C173.639,451.135 171.719,452.212 169.06,452.683L177.698,463.392C177.866,463.561 177.916,463.813 177.849,464.149C177.781,464.486 177.511,464.654 177.041,464.654L170.524,464.654C170.086,464.654 169.782,464.604 169.615,464.504C169.446,464.402 169.278,464.234 169.11,463.998L161.129,453.492L144.814,453.492L144.814,463.543C144.814,464.285 144.443,464.654 143.703,464.654L138.248,464.654C137.474,464.654 137.086,464.285 137.086,463.543L137.086,430.813C137.086,429.802 137.592,429.297 138.603,429.297L165.727,429.297ZM144.815,447.329L164.162,447.329C165.879,447.329 167.092,446.959 167.798,446.218C168.506,445.478 168.86,444.35 168.86,442.834L168.86,440.712C168.86,439.197 168.506,438.068 167.798,437.328C167.092,436.588 165.879,436.217 164.162,436.217L145.472,436.217C145.034,436.217 144.816,436.419 144.816,436.823L144.816,447.329L144.815,447.329Z" style="fill:white;fill-rule:nonzero;"/>
                <path d="M233.074,429.297C236.544,429.297 239.01,429.987 240.474,431.368C241.94,432.748 242.671,434.836 242.671,437.631L242.671,440.056C242.671,442.885 241.594,445.023 239.44,446.471C241.762,447.818 242.924,449.991 242.924,452.987L242.924,455.917C242.924,457.265 242.772,458.478 242.469,459.555C242.166,460.632 241.669,461.549 240.98,462.308C240.29,463.065 239.372,463.646 238.227,464.05C237.081,464.454 235.667,464.655 233.983,464.655L203.98,464.655C202.969,464.655 202.463,464.15 202.463,463.14L202.463,430.813C202.463,429.802 202.969,429.297 203.98,429.297L233.074,429.297ZM210.192,443.995L230.903,443.995C232.587,443.995 233.731,443.743 234.338,443.238C234.943,442.732 235.247,441.992 235.247,441.014L235.247,439.297C235.247,438.253 234.952,437.487 234.363,436.998C233.773,436.511 232.823,436.267 231.509,436.267L210.849,436.267C210.411,436.267 210.192,436.487 210.192,436.923L210.192,443.995ZM210.192,449.5L210.192,457.027C210.192,457.465 210.411,457.684 210.849,457.684L231.559,457.684C232.907,457.684 233.866,457.439 234.438,456.952C235.011,456.465 235.296,455.681 235.296,454.603L235.296,452.683C235.296,451.639 234.984,450.848 234.362,450.309C233.738,449.771 232.586,449.5 230.902,449.5L210.192,449.5Z" style="fill:white;fill-rule:nonzero;"/>
                <path d="M274.984,429.297C275.725,429.297 276.096,429.667 276.096,430.408L276.096,463.543C276.096,464.285 275.725,464.654 274.984,464.654L269.528,464.654C268.754,464.654 268.367,464.285 268.367,463.543L268.367,430.408C268.367,429.667 268.754,429.297 269.528,429.297L274.984,429.297Z" style="fill:white;fill-rule:nonzero;"/>
                <path d="M341.133,429.297C341.907,429.297 342.295,429.667 342.295,430.408L342.295,435.357C342.295,436.132 341.907,436.519 341.133,436.519L325.273,436.519L325.273,463.542C325.273,464.284 324.902,464.653 324.161,464.653L318.656,464.653C317.915,464.653 317.546,464.284 317.546,463.542L317.546,436.52L301.685,436.52C300.91,436.52 300.523,436.133 300.523,435.358L300.523,430.409C300.523,429.668 300.91,429.298 301.685,429.298L341.133,429.298L341.133,429.297Z" style="fill:white;fill-rule:nonzero;"/>
                <path d="M395.311,429.297C399.184,429.297 401.963,430.173 403.647,431.924C405.33,433.675 406.172,436.268 406.172,439.702L406.172,442.581C406.172,445.477 405.582,447.768 404.404,449.451C403.224,451.135 401.304,452.212 398.645,452.683L407.283,463.392C407.451,463.561 407.501,463.813 407.433,464.149C407.366,464.486 407.097,464.654 406.626,464.654L400.109,464.654C399.671,464.654 399.368,464.604 399.2,464.504C399.031,464.402 398.863,464.234 398.695,463.998L390.714,453.492L374.4,453.492L374.4,463.543C374.4,464.285 374.029,464.654 373.289,464.654L367.834,464.654C367.06,464.654 366.672,464.285 366.672,463.543L366.672,430.813C366.672,429.802 367.178,429.297 368.189,429.297L395.311,429.297ZM374.4,447.329L393.747,447.329C395.464,447.329 396.677,446.959 397.383,446.218C398.091,445.478 398.445,444.35 398.445,442.834L398.445,440.712C398.445,439.197 398.091,438.068 397.383,437.328C396.677,436.588 395.464,436.217 393.747,436.217L375.057,436.217C374.619,436.217 374.401,436.419 374.401,436.823L374.401,447.329L374.4,447.329Z" style="fill:white;fill-rule:nonzero;"/>
                <path d="M437.928,429.297C438.668,429.297 439.039,429.667 439.039,430.408L439.039,450.562C439.039,451.909 439.148,453.029 439.367,453.92C439.586,454.813 439.949,455.52 440.453,456.041C440.959,456.564 441.641,456.935 442.5,457.152C443.358,457.372 444.444,457.481 445.758,457.481L459.749,457.481C461.062,457.481 462.148,457.372 463.007,457.152C463.866,456.934 464.547,456.564 465.053,456.041C465.558,455.52 465.912,454.812 466.114,453.92C466.316,453.028 466.417,451.908 466.417,450.562L466.417,430.408C466.417,429.667 466.788,429.297 467.528,429.297L473.034,429.297C473.774,429.297 474.145,429.667 474.145,430.408L474.145,451.319C474.145,453.744 473.893,455.806 473.387,457.507C472.883,459.207 472.066,460.588 470.938,461.649C469.809,462.71 468.345,463.476 466.543,463.947C464.742,464.42 462.561,464.654 460.002,464.654L445.455,464.654C442.894,464.654 440.724,464.42 438.938,463.947C437.153,463.476 435.696,462.71 434.569,461.649C433.441,460.588 432.615,459.208 432.093,457.507C431.572,455.806 431.31,453.743 431.31,451.319L431.31,430.408C431.31,429.667 431.697,429.297 432.472,429.297L437.928,429.297Z" style="fill:white;fill-rule:nonzero;"/>
                <path d="M510.125,429.297C510.866,429.297 511.505,429.347 512.044,429.448C512.583,429.549 513.055,429.743 513.458,430.029C513.863,430.315 514.224,430.703 514.544,431.191C514.863,431.678 515.192,432.327 515.53,433.135L526.036,457.38C526.169,457.684 526.407,457.835 526.743,457.835L527.348,457.835C527.685,457.835 527.921,457.684 528.056,457.38L538.562,433.135C538.899,432.326 539.227,431.678 539.547,431.191C539.866,430.703 540.229,430.315 540.632,430.029C541.037,429.743 541.499,429.549 542.022,429.448C542.544,429.346 543.175,429.297 543.917,429.297L549.322,429.297C551.072,429.297 552.251,429.693 552.856,430.484C553.463,431.276 553.766,432.631 553.766,434.55L553.766,463.543C553.766,464.285 553.379,464.654 552.605,464.654L547.454,464.654C546.712,464.654 546.342,464.285 546.342,463.543L546.342,437.176C546.342,436.84 546.207,436.671 545.937,436.671L545.483,436.671C545.146,436.671 544.927,436.807 544.826,437.075L534.624,459.705C534.221,460.613 533.807,461.381 533.386,462.003C532.965,462.627 532.511,463.14 532.024,463.543C531.535,463.947 530.979,464.234 530.356,464.402C529.733,464.571 529.001,464.654 528.159,464.654L525.735,464.654C524.891,464.654 524.16,464.571 523.538,464.402C522.914,464.234 522.358,463.947 521.87,463.543C521.382,463.14 520.927,462.627 520.507,462.003C520.086,461.381 519.674,460.613 519.27,459.705L509.066,437.075C508.965,436.806 508.747,436.671 508.41,436.671L507.955,436.671C507.685,436.671 507.552,436.84 507.552,437.176L507.552,463.543C507.552,464.285 507.181,464.654 506.441,464.654L501.289,464.654C500.515,464.654 500.127,464.285 500.127,463.543L500.127,434.55C500.127,432.631 500.431,431.276 501.036,430.484C501.643,429.694 502.837,429.297 504.623,429.297L510.125,429.297Z" style="fill:white;fill-rule:nonzero;"/>
            </g>
            <g id="Symbol_-_Original_7_" transform="matrix(0.931002,0,0,0.931002,467.546,2350.48)">
                <path d="M357.303,200.838L380.968,160.684L444.753,260.032L444.783,279.097L444.575,147.9C444.424,144.693 442.721,141.759 440.004,140.029L325.167,73.973C322.481,72.653 319.074,72.667 316.393,74.014C316.031,74.196 315.69,74.393 315.365,74.608L314.965,74.86L203.497,139.455L203.064,139.651C202.508,139.907 201.946,140.232 201.418,140.61C199.305,142.126 197.901,144.367 197.447,146.881C197.379,147.262 197.329,147.65 197.305,148.041L197.48,254.954L256.893,162.867C264.373,150.656 280.671,146.723 295.8,146.937L313.557,147.406L208.933,315.193L221.266,322.294L327.144,147.576L373.942,147.406L268.337,326.533L312.345,351.845L317.603,354.869C319.827,355.773 322.449,355.818 324.692,355.009L441.143,287.524L418.879,300.425L357.303,200.838ZM366.332,330.877L321.883,261.115L349.016,215.073L407.391,307.082L366.332,330.877Z" style="fill:rgb(45,55,75);fill-rule:nonzero;"/>
                <path d="M321.883,261.115L366.332,330.877L407.392,307.082L349.017,215.073L321.883,261.115Z" style="fill:rgb(40,160,240);fill-rule:nonzero;"/>
                <path d="M444.783,279.097L444.753,260.032L380.968,160.684L357.303,200.838L418.879,300.425L441.143,287.524C443.327,285.751 444.648,283.148 444.787,280.339L444.783,279.097Z" style="fill:rgb(40,160,240);fill-rule:nonzero;"/>
                <path d="M177.492,297.077L208.932,315.193L313.556,147.406L295.799,146.937C280.67,146.723 264.373,150.656 256.892,162.867L197.479,254.954L177.491,285.665L177.491,297.077L177.492,297.077Z" style="fill:white;fill-rule:nonzero;"/>
                <path d="M373.941,147.406L327.144,147.576L221.266,322.294L258.273,343.602L268.337,326.533L373.941,147.406Z" style="fill:white;fill-rule:nonzero;"/>
                <path d="M464.504,147.165C464.113,137.378 458.814,128.418 450.513,123.202L334.171,56.297C325.96,52.162 315.702,52.157 307.478,56.294C306.506,56.784 194.337,121.838 194.337,121.838C192.785,122.582 191.29,123.469 189.883,124.475C182.473,129.786 177.956,138.038 177.492,147.105L177.492,285.666L197.48,254.955L197.305,148.042C197.329,147.651 197.378,147.267 197.447,146.887C197.898,144.371 199.303,142.127 201.418,140.611C201.946,140.233 316.03,74.197 316.393,74.015C319.075,72.668 322.482,72.654 325.167,73.974L440.004,140.03C442.721,141.76 444.424,144.694 444.575,147.901L444.575,280.34C444.436,283.149 443.326,285.751 441.142,287.525L418.878,300.426L407.391,307.083L366.331,330.878L324.691,355.01C322.448,355.82 319.826,355.775 317.602,354.87L268.336,326.534L258.272,343.602L302.546,369.093C304.01,369.925 305.315,370.663 306.385,371.265C308.043,372.195 309.172,372.816 309.571,373.009C312.718,374.537 317.245,375.427 321.325,375.427C325.066,375.427 328.713,374.74 332.165,373.388L453.11,303.345C460.052,297.967 464.136,289.856 464.504,281.069L464.504,147.165Z" style="fill:rgb(150,190,220);fill-rule:nonzero;"/>
            </g>
        </g>
    </g>
</svg>
