<?xml version="1.0" encoding="UTF-8" standalone="no"?>
<!DOCTYPE svg PUBLIC "-//W3C//DTD SVG 1.1//EN" "http://www.w3.org/Graphics/SVG/1.1/DTD/svg11.dtd">
<svg width="100%" height="100%" viewBox="0 0 810 300" version="1.1" xmlns="http://www.w3.org/2000/svg" xmlns:xlink="http://www.w3.org/1999/xlink" xml:space="preserve" xmlns:serif="http://www.serif.com/" style="fill-rule:evenodd;clip-rule:evenodd;stroke-linejoin:round;stroke-miterlimit:2;">
    <g transform="matrix(1,0,0,1,-1200,-1500)">
        <g id="WBTC.svg" transform="matrix(12.5,0,0,12.5,1860,1650)">
            <g transform="matrix(1,0,0,1,-12,-12)">
                <g>
                    <clipPath id="_clip1">
                        <rect x="0" y="0" width="24" height="24"/>
                    </clipPath>
                    <g clip-path="url(#_clip1)">
                        <path d="M23.623,14.92C22.029,21.305 15.466,25.248 9.08,23.658C2.697,22.063 -1.246,15.501 0.344,9.116C1.937,2.732 8.5,-1.212 14.885,0.377C21.27,1.971 25.214,8.535 23.623,14.921L23.623,14.92Z" style="fill:rgb(247,147,26);fill-rule:nonzero;"/>
                        <path d="M17.292,10.288C17.531,8.691 16.315,7.833 14.653,7.26L15.192,5.097L13.875,4.769L13.35,6.875L12.295,6.627L12.824,4.507L11.508,4.179L10.968,6.341L10.127,6.143L10.129,6.136L8.313,5.683L7.963,7.089L8.919,7.327C9.452,7.46 9.549,7.813 9.533,8.093L8.919,10.557C8.966,10.569 9.011,10.583 9.056,10.601L8.917,10.567L8.056,14.019C7.991,14.181 7.825,14.424 7.453,14.332C7.466,14.351 6.496,14.093 6.496,14.093L5.84,15.6L7.554,16.027L8.493,16.269L7.948,18.457L9.263,18.785L9.803,16.62L10.852,16.892L10.314,19.047L11.631,19.375L12.176,17.191C14.421,17.616 16.11,17.445 16.82,15.414C17.393,13.779 16.792,12.836 15.61,12.221C16.47,12.023 17.118,11.457 17.291,10.288L17.292,10.288ZM14.283,14.507C13.876,16.142 11.123,15.258 10.23,15.037L10.953,12.138C11.846,12.361 14.708,12.802 14.283,14.507ZM14.69,10.265C14.319,11.752 12.027,10.997 11.284,10.812L11.94,8.183C12.683,8.368 15.077,8.714 14.691,10.266L14.69,10.265Z" style="fill:white;fill-rule:nonzero;"/>
                    </g>
                </g>
            </g>
        </g>
        <g id="USDC.svg" transform="matrix(12.5,0,0,12.5,1605,1650)">
            <g transform="matrix(1,0,0,1,-12,-12)">
                <clipPath id="_clip2">
                    <rect x="0" y="0" width="24" height="24"/>
                </clipPath>
                <g clip-path="url(#_clip2)">
                    <path d="M12,24C12.01,24 12.02,24 12.03,24C18.597,24 24,18.597 24,12.03C24,12.02 24,12.01 24,12C24,11.99 24,11.98 24,11.97C24,5.403 18.597,-0 12.03,-0C12.02,-0 12.01,-0 12,0C11.99,-0 11.98,-0 11.97,-0C5.403,-0 -0,5.403 -0,11.97C-0,11.98 -0,11.99 0,12C-0,12.01 -0,12.02 -0,12.03C-0,18.597 5.403,24 11.97,24C11.98,24 11.99,24 12,24Z" style="fill:rgb(39,117,202);fill-rule:nonzero;"/>
                    <path d="M15.3,13.9C15.3,12.15 14.25,11.55 12.15,11.3C10.65,11.1 10.35,10.7 10.35,10C10.35,9.3 10.85,8.85 11.85,8.85C12.75,8.85 13.25,9.15 13.5,9.9C13.55,10.05 13.7,10.15 13.85,10.15L14.65,10.15C14.653,10.15 14.657,10.15 14.66,10.15C14.847,10.15 15,9.997 15,9.81C15,9.807 15,9.803 15,9.8L15,9.75C14.8,8.65 13.9,7.8 12.75,7.7L12.75,6.5C12.75,6.3 12.6,6.15 12.35,6.1L11.6,6.1C11.4,6.1 11.25,6.25 11.2,6.5L11.2,7.65C9.7,7.85 8.75,8.85 8.75,10.1C8.75,11.75 9.75,12.4 11.85,12.65C13.25,12.9 13.7,13.2 13.7,14C13.7,14.8 13,15.35 12.05,15.35C10.75,15.35 10.3,14.8 10.15,14.05C10.1,13.85 9.95,13.75 9.8,13.75L8.95,13.75C8.947,13.75 8.943,13.75 8.94,13.75C8.753,13.75 8.6,13.903 8.6,14.09C8.6,14.093 8.6,14.097 8.6,14.1L8.6,14.15C8.8,15.4 9.6,16.3 11.25,16.55L11.25,17.75C11.25,17.95 11.4,18.1 11.65,18.15L12.4,18.15C12.6,18.15 12.75,18 12.8,17.75L12.8,16.55C14.3,16.3 15.3,15.25 15.3,13.9ZM9.474,18.65C6.53,17.585 4.558,14.774 4.558,11.644C4.558,10.759 4.716,9.88 5.024,9.05C5.774,6.95 7.424,5.35 9.474,4.6C9.67,4.515 9.792,4.313 9.774,4.1L9.774,3.4C9.774,3.2 9.674,3.05 9.474,3C9.424,3 9.324,3 9.274,3.05C4.524,4.55 1.924,9.6 3.424,14.35C4.324,17.15 6.474,19.3 9.274,20.2C9.474,20.3 9.674,20.2 9.724,20C9.774,19.95 9.774,19.9 9.774,19.8L9.774,19.1C9.774,18.95 9.624,18.75 9.474,18.65ZM14.774,3.05C14.574,2.95 14.374,3.05 14.324,3.25C14.274,3.3 14.274,3.35 14.274,3.45L14.274,4.15C14.274,4.35 14.424,4.55 14.574,4.65C17.518,5.715 19.49,8.526 19.49,11.656C19.49,12.541 19.332,13.42 19.024,14.25C18.274,16.35 16.624,17.95 14.574,18.7C14.378,18.785 14.256,18.987 14.274,19.2L14.274,19.9C14.274,20.1 14.374,20.25 14.574,20.3C14.624,20.3 14.724,20.3 14.774,20.25C19.524,18.75 22.124,13.7 20.624,8.95C19.724,6.1 17.524,3.95 14.774,3.05Z" style="fill:white;fill-rule:nonzero;"/>
                </g>
            </g>
        </g>
        <g id="ETH.svg" transform="matrix(0.12,0,0,0.12,1350,1650)">
            <g transform="matrix(1,0,0,1,-1250,-1250)">
                <g>
                    <circle cx="1250" cy="1250" r="1250" style="fill:rgb(98,126,234);"/>
                    <g>
                        <path d="M1288.91,312.5L1288.91,1005.47L1874.61,1267.19L1288.91,312.5Z" style="fill:white;fill-opacity:0.6;fill-rule:nonzero;"/>
                        <path d="M1288.91,312.5L703.125,1267.19L1288.91,1005.47L1288.91,312.5Z" style="fill:white;fill-rule:nonzero;"/>
                        <path d="M1288.91,1716.25L1288.91,2187.11L1875,1376.25L1288.91,1716.25Z" style="fill:white;fill-opacity:0.6;fill-rule:nonzero;"/>
                        <path d="M1288.91,2187.11L1288.91,1716.17L703.125,1376.25L1288.91,2187.11Z" style="fill:white;fill-rule:nonzero;"/>
                        <path d="M1288.91,1607.27L1874.61,1267.19L1288.91,1005.62L1288.91,1607.27Z" style="fill:white;fill-opacity:0.2;fill-rule:nonzero;"/>
                        <path d="M703.125,1267.19L1288.91,1607.27L1288.91,1005.62L703.125,1267.19Z" style="fill:white;fill-opacity:0.6;fill-rule:nonzero;"/>
                    </g>
                </g>
            </g>
        </g>
    </g>
</svg>
