<?xml version="1.0" encoding="UTF-8" standalone="no"?>
<!DOCTYPE svg PUBLIC "-//W3C//DTD SVG 1.1//EN" "http://www.w3.org/Graphics/SVG/1.1/DTD/svg11.dtd">
<svg width="100%" height="100%" viewBox="0 0 1465 368" version="1.1" xmlns="http://www.w3.org/2000/svg" xmlns:xlink="http://www.w3.org/1999/xlink" xml:space="preserve" xmlns:serif="http://www.serif.com/" style="fill-rule:evenodd;clip-rule:evenodd;stroke-linejoin:round;stroke-miterlimit:2;">
    <g transform="matrix(1,0,0,1,-448.223,-618.429)">
        <g>
            <g id="AAVE-USD.svg" transform="matrix(3.66244,0,0,3.66244,1730.08,801.551)">
                <g transform="matrix(1,0,0,1,-50,-50)">
                    <circle cx="50" cy="50" r="50" style="fill:rgb(244,155,51);"/>
                    <circle cx="50" cy="50" r="50" style="fill:url(#_Linear1);"/>
                    <path d="M73.442,68.015L56.979,28.069C56.697,27.189 56.145,26.42 55.403,25.869C54.66,25.319 53.764,25.015 52.84,25L51.392,25C50.471,25.018 49.578,25.324 48.839,25.874C48.099,26.424 47.55,27.192 47.268,28.069L40.107,45.476L34.677,45.476C33.897,45.485 33.15,45.8 32.6,46.353C32.049,46.907 31.738,47.655 31.734,48.435L31.734,48.467C31.738,49.248 32.049,49.995 32.6,50.549C33.15,51.103 33.897,51.417 34.677,51.426L37.589,51.426L30.758,68.015C30.628,68.378 30.559,68.761 30.554,69.148C30.522,69.964 30.81,70.76 31.356,71.367C31.639,71.657 31.981,71.882 32.358,72.029C32.735,72.176 33.14,72.24 33.544,72.217C34.156,72.208 34.75,72.01 35.244,71.65C35.759,71.265 36.161,70.748 36.409,70.155L43.948,51.426L49.157,51.426C49.941,51.422 50.691,51.109 51.245,50.554C51.799,50 52.112,49.25 52.116,48.467L52.116,48.388C52.112,47.605 51.799,46.854 51.245,46.3C50.691,45.746 49.941,45.433 49.157,45.429L46.371,45.429L52.116,31.075L67.776,70.155C68.024,70.748 68.426,71.265 68.941,71.65C69.435,72.01 70.029,72.208 70.641,72.217C71.048,72.242 71.455,72.179 71.835,72.032C72.216,71.886 72.56,71.659 72.844,71.367C73.385,70.758 73.668,69.962 73.631,69.148C73.651,68.761 73.587,68.374 73.442,68.015Z" style="fill:white;fill-rule:nonzero;"/>
                </g>
            </g>
            <g id="ETC-USD.svg" transform="matrix(2.47462,0,0,2.47462,1546.96,802.05)">
                <g transform="matrix(1,0,0,1,-74,-74)">
                    <path d="M74,148C114.869,148 148,114.869 148,74C148,33.131 114.869,0 74,0C33.131,0 0,33.131 0,74C0,114.869 33.131,148 74,148Z" style="fill:rgb(58,184,58);fill-rule:nonzero;"/>
                    <path d="M73.992,24.667L73.992,61.132L104.813,74.904L73.992,24.667Z" style="fill:white;fill-opacity:0.6;fill-rule:nonzero;"/>
                    <path d="M73.991,24.667L43.166,74.904L73.991,61.132L73.991,24.667Z" style="fill:white;fill-rule:nonzero;"/>
                    <path d="M73.992,98.535L73.992,123.313L104.834,80.644L73.992,98.535Z" style="fill:white;fill-opacity:0.6;fill-rule:nonzero;"/>
                    <path d="M73.991,123.313L73.991,98.531L43.166,80.644L73.991,123.313Z" style="fill:white;fill-rule:nonzero;"/>
                    <path d="M73.992,92.8L104.813,74.905L73.992,61.141L73.992,92.8Z" style="fill:white;fill-opacity:0.2;fill-rule:nonzero;"/>
                    <path d="M43.166,74.905L73.991,92.8L73.991,61.141L43.166,74.905Z" style="fill:white;fill-opacity:0.6;fill-rule:nonzero;"/>
                </g>
            </g>
            <g id="BCH-USD.svg" transform="matrix(2.47462,0,0,2.47462,1363.83,801.551)">
                <g transform="matrix(1,0,0,1,-74,-74)">
                    <path d="M74,148C114.869,148 148,114.869 148,74C148,33.131 114.869,0 74,0C33.131,0 0,33.131 0,74C0,114.869 33.131,148 74,148Z" style="fill:rgb(141,195,81);fill-rule:nonzero;"/>
                    <path d="M95.312,51.044C92.058,42.775 83.897,42.031 74.398,43.874L71.015,32.078L63.84,34.14L67.131,45.625C65.243,46.163 63.329,46.755 61.418,47.345L58.108,35.783L50.93,37.841L54.311,49.633C52.765,50.109 51.246,50.58 49.757,51.003L49.746,50.967L39.842,53.804L42.042,61.471C42.042,61.471 47.317,59.849 47.256,59.971C50.165,59.139 51.593,60.556 52.288,61.936L56.143,75.371C56.343,75.314 56.606,75.25 56.916,75.201L56.158,75.421L61.555,94.245C61.687,95.195 61.568,96.809 59.535,97.396C59.653,97.449 54.319,98.893 54.319,98.893L55.35,107.873L64.695,105.194C66.433,104.699 68.152,104.239 69.832,103.768L73.256,115.694L80.428,113.635L77.045,101.84C79.025,101.311 80.936,100.78 82.797,100.247L86.162,111.995L93.338,109.934L89.926,98.029C101.799,93.875 109.374,88.413 107.173,76.777C105.404,67.409 99.942,64.564 92.619,64.885C96.177,61.572 97.706,57.093 95.312,51.044ZM92.579,79.432C95.145,88.345 79.585,91.707 74.72,93.108L70.193,77.301C75.062,75.908 89.917,70.134 92.579,79.432ZM82.848,58.09C85.173,66.202 72.17,68.902 68.12,70.064L64.011,55.734C68.06,54.573 80.422,49.629 82.848,58.09Z" style="fill:white;fill-rule:nonzero;"/>
                </g>
            </g>
            <g id="LINK-USD.svg" transform="matrix(3.66244,0,0,3.66244,1180.71,801.551)">
                <g transform="matrix(1,0,0,1,-50,-50)">
                    <clipPath id="_clip2">
                        <rect x="0" y="0" width="100" height="100"/>
                    </clipPath>
                    <g clip-path="url(#_clip2)">
                        <path d="M50,100C77.614,100 100,77.614 100,50C100,22.386 77.614,0 50,0C22.386,0 0,22.386 0,50C0,77.614 22.386,100 50,100Z" style="fill:rgb(51,93,210);fill-rule:nonzero;"/>
                        <path d="M49.852,16.669L43.792,20.154L27.276,29.699L21.216,33.184L21.216,66.214L27.276,69.699L43.943,79.244L50.004,82.729L56.064,79.244L72.428,69.699L78.489,66.214L78.489,33.184L72.428,29.699L55.913,20.154L49.852,16.669ZM33.337,59.244L33.337,40.154L49.852,30.608L66.368,40.154L66.368,59.244L49.852,68.79L33.337,59.244Z" style="fill:white;fill-rule:nonzero;"/>
                    </g>
                </g>
            </g>
            <g id="SOL-USD.svg" transform="matrix(2.47125,0,0,2.47125,997.589,801.8)">
                <g transform="matrix(1,0,0,1,-74,-74)">
                    <circle cx="74" cy="74" r="74"/>
                    <path d="M44.81,91.137C45.323,90.621 46.028,90.32 46.776,90.32L114.607,90.32C115.846,90.32 116.466,91.825 115.59,92.706L102.19,106.183C101.677,106.699 100.972,107 100.224,107L32.393,107C31.154,107 30.534,105.495 31.41,104.614L44.81,91.137Z" style="fill:url(#_Linear3);fill-rule:nonzero;"/>
                    <path d="M44.81,40.817C45.344,40.301 46.049,40 46.776,40L114.607,40C115.846,40 116.466,41.505 115.59,42.386L102.19,55.863C101.677,56.379 100.972,56.68 100.224,56.68L32.393,56.68C31.154,56.68 30.534,55.176 31.41,54.294L44.81,40.817Z" style="fill:url(#_Linear4);fill-rule:nonzero;"/>
                    <path d="M102.19,65.816C101.677,65.3 100.972,64.999 100.224,64.999L32.393,64.999C31.154,64.999 30.534,66.503 31.41,67.385L44.81,80.862C45.323,81.378 46.028,81.679 46.776,81.679L114.607,81.679C115.846,81.679 116.466,80.174 115.59,79.293L102.19,65.816Z" style="fill:url(#_Linear5);fill-rule:nonzero;"/>
                </g>
            </g>
            <g id="BTC-USD.svg" transform="matrix(15.2602,0,0,15.2602,814.467,802.05)">
                <g transform="matrix(1,0,0,1,-12,-12)">
                    <g>
                        <clipPath id="_clip6">
                            <rect x="0" y="0" width="24" height="24"/>
                        </clipPath>
                        <g clip-path="url(#_clip6)">
                            <path d="M23.623,14.92C22.029,21.305 15.466,25.248 9.08,23.658C2.697,22.063 -1.246,15.501 0.344,9.116C1.937,2.732 8.5,-1.212 14.885,0.377C21.27,1.971 25.214,8.535 23.623,14.921L23.623,14.92Z" style="fill:rgb(247,147,26);fill-rule:nonzero;"/>
                            <path d="M17.292,10.288C17.531,8.691 16.315,7.833 14.653,7.26L15.192,5.097L13.875,4.769L13.35,6.875L12.295,6.627L12.824,4.507L11.508,4.179L10.968,6.341L10.127,6.143L10.129,6.136L8.313,5.683L7.963,7.089L8.919,7.327C9.452,7.46 9.549,7.813 9.533,8.093L8.919,10.557C8.966,10.569 9.011,10.583 9.056,10.601L8.917,10.567L8.056,14.019C7.991,14.181 7.825,14.424 7.453,14.332C7.466,14.351 6.496,14.093 6.496,14.093L5.84,15.6L7.554,16.027L8.493,16.269L7.948,18.457L9.263,18.785L9.803,16.62L10.852,16.892L10.314,19.047L11.631,19.375L12.176,17.191C14.421,17.616 16.11,17.445 16.82,15.414C17.393,13.779 16.792,12.836 15.61,12.221C16.47,12.023 17.118,11.457 17.291,10.288L17.292,10.288ZM14.283,14.507C13.876,16.142 11.123,15.258 10.23,15.037L10.953,12.138C11.846,12.361 14.708,12.802 14.283,14.507ZM14.69,10.265C14.319,11.752 12.027,10.997 11.284,10.812L11.94,8.183C12.683,8.368 15.077,8.714 14.691,10.266L14.69,10.265Z" style="fill:white;fill-rule:nonzero;"/>
                        </g>
                    </g>
                </g>
            </g>
            <g id="ETH-USD.svg" transform="matrix(0.146498,0,0,0.146498,631.345,802.549)">
                <g transform="matrix(1,0,0,1,-1250,-1250)">
                    <g>
                        <circle cx="1250" cy="1250" r="1250" style="fill:rgb(98,126,234);"/>
                        <g>
                            <path d="M1288.91,312.5L1288.91,1005.47L1874.61,1267.19L1288.91,312.5Z" style="fill:white;fill-opacity:0.6;fill-rule:nonzero;"/>
                            <path d="M1288.91,312.5L703.125,1267.19L1288.91,1005.47L1288.91,312.5Z" style="fill:white;fill-rule:nonzero;"/>
                            <path d="M1288.91,1716.25L1288.91,2187.11L1875,1376.25L1288.91,1716.25Z" style="fill:white;fill-opacity:0.6;fill-rule:nonzero;"/>
                            <path d="M1288.91,2187.11L1288.91,1716.17L703.125,1376.25L1288.91,2187.11Z" style="fill:white;fill-rule:nonzero;"/>
                            <path d="M1288.91,1607.27L1874.61,1267.19L1288.91,1005.62L1288.91,1607.27Z" style="fill:white;fill-opacity:0.2;fill-rule:nonzero;"/>
                            <path d="M703.125,1267.19L1288.91,1607.27L1288.91,1005.62L703.125,1267.19Z" style="fill:white;fill-opacity:0.6;fill-rule:nonzero;"/>
                        </g>
                    </g>
                </g>
            </g>
        </g>
    </g>
    <defs>
        <linearGradient id="_Linear1" x1="0" y1="0" x2="1" y2="0" gradientUnits="userSpaceOnUse" gradientTransform="matrix(111.944,-2.7222,2.7222,111.944,-5,68)"><stop offset="0" style="stop-color:rgb(48,186,198);stop-opacity:1"/><stop offset="1" style="stop-color:rgb(182,80,158);stop-opacity:1"/></linearGradient>
        <linearGradient id="_Linear3" x1="0" y1="0" x2="1" y2="0" gradientUnits="userSpaceOnUse" gradientTransform="matrix(-47.3736,90.2148,-90.2148,-47.3736,97.7982,26.5252)"><stop offset="0" style="stop-color:rgb(0,255,163);stop-opacity:1"/><stop offset="1" style="stop-color:rgb(220,31,255);stop-opacity:1"/></linearGradient>
        <linearGradient id="_Linear4" x1="0" y1="0" x2="1" y2="0" gradientUnits="userSpaceOnUse" gradientTransform="matrix(-47.3736,90.2148,-90.2148,-47.3736,97.7982,26.5252)"><stop offset="0" style="stop-color:rgb(0,255,163);stop-opacity:1"/><stop offset="1" style="stop-color:rgb(220,31,255);stop-opacity:1"/></linearGradient>
        <linearGradient id="_Linear5" x1="0" y1="0" x2="1" y2="0" gradientUnits="userSpaceOnUse" gradientTransform="matrix(-47.3736,90.2148,-90.2148,-47.3736,97.7982,26.5252)"><stop offset="0" style="stop-color:rgb(0,255,163);stop-opacity:1"/><stop offset="1" style="stop-color:rgb(220,31,255);stop-opacity:1"/></linearGradient>
    </defs>
</svg>
