<svg width="809" height="276" viewBox="0 0 809 276" fill="none" xmlns="http://www.w3.org/2000/svg">
<path d="M308.354 160.909V142.275H352.565C359.324 142.275 364.601 140.356 368.385 136.52C372.169 132.683 374.061 127.626 374.061 121.373C374.061 115.12 372.169 109.964 368.385 106.227C364.601 102.49 359.324 100.622 352.565 100.622H294.277V191.538H275.196V81.3521H352.565C358.925 81.3521 364.601 82.2863 369.605 84.1547C374.596 86.0231 378.815 88.6513 382.25 92.0394C385.686 95.4274 388.312 99.5379 390.129 104.383C391.946 109.229 392.855 114.684 392.855 120.751C392.855 126.817 391.946 132.135 390.129 137.043C388.312 141.938 385.686 146.161 382.25 149.698C378.815 153.236 374.608 155.989 369.605 157.957C364.614 159.925 358.925 160.909 352.565 160.909H308.354Z" fill="white"/>
<path d="M455.477 191.513V149.686L397.039 81.3521H422.928L465.783 132.11L508.773 81.3521H533.306L474.707 149.686V191.513H455.477Z" fill="white"/>
<path d="M599.605 191.513V100.597H548.967V81.3521H669.545V100.597H618.836V191.513H599.605Z" fill="white"/>
<path d="M789.844 81.3521H809V191.513H789.844V81.3521Z" fill="white"/>
<path d="M707.189 191.513V143.832H778.453V126.779H707.189V81.3521H688.033V191.513H707.189Z" fill="white"/>
<path d="M137.598 110.157C137.598 125.366 125.275 137.697 110.078 137.697V165.238C140.473 165.238 165.117 140.575 165.117 110.157C165.117 79.7394 140.473 55.0764 110.078 55.0764C100.058 55.0764 90.6487 57.7545 82.5583 62.4504C66.1038 71.9668 55.0386 89.7665 55.0386 110.157V247.859L79.7827 272.621L82.5583 275.399V110.157C82.5583 94.9483 94.8806 82.6168 110.078 82.6168C125.275 82.6168 137.598 94.9483 137.598 110.157Z" fill="white"/>
<path d="M110.079 0C90.0271 0 71.2326 5.36856 55.0394 14.748C44.6713 20.7393 35.386 28.3749 27.5197 37.3059C10.393 56.7249 0 82.2349 0 110.161V192.782L27.5197 220.323V110.161C27.5197 85.6977 38.1492 63.7127 55.0394 48.5786C62.9804 41.4787 72.303 35.8734 82.5591 32.2612C91.1597 29.197 100.433 27.5403 110.079 27.5403C155.671 27.5403 192.638 64.5348 192.638 110.161C192.638 155.788 155.671 192.782 110.079 192.782V220.323C170.881 220.323 220.158 170.997 220.158 110.161C220.158 49.326 170.881 0 110.079 0Z" fill="white"/>
</svg>
